<?xml version="1.0" encoding="UTF-8"?>
<!DOCTYPE svg PUBLIC "-//W3C//DTD SVG 1.1//EN" "http://www.w3.org/Graphics/SVG/1.1/DTD/svg11.dtd">
<!-- Creator: CorelDRAW -->
<svg xmlns="http://www.w3.org/2000/svg" xml:space="preserve" width="185mm" height="213mm" version="1.1" style="shape-rendering:geometricPrecision; text-rendering:geometricPrecision; image-rendering:optimizeQuality; fill-rule:evenodd; clip-rule:evenodd"
viewBox="0 0 18500 21300"
 xmlns:xlink="http://www.w3.org/1999/xlink"
 xmlns:xodm="http://www.corel.com/coreldraw/odm/2003">
 <defs>
  <style type="text/css">
   <![CDATA[
    .fil0 {fill:#EAC49A;fill-rule:nonzero}
   ]]>
  </style>
 </defs>
 <g id="Layer_x0020_1">
  <metadata id="CorelCorpID_0Corel-Layer"/>
  <g id="_2612172903392">
   <path class="fil0" d="M491.2 15896.9l774.17 -471.72 66.63 109.87 -239.51 486.55c-56.45,111.64 -110.61,206.16 -168.16,291.53l2.66 1.55c98.13,-71.87 191.03,-131.19 311.01,-204.32l324.36 -197.6 57.55 93.93 -774.16 471.72 -61.69 -101.53 242.32 -484.92c54.16,-106.26 110.68,-211.92 171.25,-302.01l-3.32 -2.58c-94.22,65.59 -186.9,123.88 -314.69,201.73l-330.86 201.73 -57.56 -93.93z"/>
   <path class="fil0" d="M1812.79 17145.66l146.54 -234.05c33.57,-52.61 66.93,-97.1 98.95,-140.05l-1.55 -2.58c-49.51,23.17 -101.53,47.08 -155.98,67.96l-260.25 95.77 172.29 212.95zm-258.47 -173.91l-280.39 106.17 -76.22 -94.44 898.79 -330.34 88.77 109.57 -510.46 811.13 -78.88 -97.62 160.64 -254.56 -202.25 -249.91z"/>
   <path class="fil0" d="M2181.43 18101.71l419.03 -856.14 91.42 88.76 -210.88 418.3c-57.26,114.51 -110.09,217.08 -166.09,309.75l2.14 2.07c91.05,-57.26 197.3,-112.97 308.72,-169.19l422.21 -214.21 89.79 87.22 -864.26 423.46 -92.08 -90.02z"/>
   <path class="fil0" d="M3465.09 18708.23l86.99 -261.64c20.3,-59.03 42.43,-110.31 63.24,-160.04l-2.58 -1.55c-42.5,34.08 -87.51,69.5 -134.89,102.78l-230.58 154.36 217.82 166.09zm-292.27 -108.02l-247.33 169.71 -96.29 -73.64 794.97 -533.4 112.16 85.37 -304.3 908.46 -99.39 -75.71 95.48 -285.55 -255.3 -195.24z"/>
   <polygon class="fil0" points="4398.27,18704.1 4499.8,18763.72 4091.17,19460.04 4425.35,19656.02 4375.61,19741.17 3939.91,19485.8 "/>
   <path class="fil0" d="M5615.15 20159.32c38,48.4 101.24,98.65 177.01,125.73 112.45,40.58 199.89,5.46 230.88,-80.94 28.63,-79.18 -1.03,-142.41 -100.49,-226.75 -121.53,-99.39 -181.96,-203.58 -139.02,-323.04 47.67,-132.74 193.69,-191.84 359.78,-132.22 86.41,31.21 143.67,74.45 173.33,109.05l-63.24 79.18c-21.32,-26.05 -69.5,-70.84 -146.32,-98.43 -117.39,-42.14 -186.31,11.43 -207.41,69.8 -28.63,79.1 9.37,136.87 111.12,224.6 124.19,108.84 172.37,204.32 127.29,329.31 -47.08,131.19 -184.77,211.62 -387.31,139.24 -82.27,-29.96 -163.22,-86.92 -197.6,-134.07l61.98 -81.46z"/>
   <path class="fil0" d="M6881.84 20203.66l116.36 27.08c122.05,28.41 214.72,-20.07 238.41,-121.01 26.85,-114.59 -44.5,-183.5 -164.77,-211.91 -54.67,-12.77 -94.44,-16.68 -114.81,-16.16l-75.19 322zm-20.07 -428.18c60.43,1.85 144.99,13.8 223.35,32.25 121.01,27.89 195.24,69.8 238.7,132 34.9,48.92 46.34,115.03 30.18,183.8 -26.78,116.07 -118.94,175.91 -218.63,186.39l-0.81 3.09c61.98,39.33 87.73,112.45 88.03,209.04 0.22,129.86 1.25,219.15 11.43,257.66l-118.42 -27.59c-7.82,-28.34 -10.41,-108.54 -8.86,-224.61 2.07,-127.06 -34.9,-184.83 -137.17,-212.43l-107.8 -25.01 -88.98 382.14 -114 -26.27 202.98 -870.46z"/>
   <polygon class="fil0" points="8053.72,19990.27 7934.18,20888.84 7817.82,20873.2 7937.06,19974.63 "/>
   <path class="fil0" d="M8814.53 20053.29l117.39 5.23 -26.78 604.91c-10.7,240.83 -132.01,309.75 -287.7,302.74 -43.68,-1.84 -95.77,-13.5 -124.1,-26.78l21.03 -94.52c23.98,10.4 58.36,19.77 98.43,21.62 104.11,4.72 167.34,-40.07 175.17,-217.6l26.56 -595.6z"/>
   <path class="fil0" d="M9971.87 20557.62l-107.73 -254.05c-23.69,-57.78 -40.88,-110.61 -58.07,-161.67l-2.88 0c-9.59,53.94 -19.77,110.17 -33.57,166.61l-71.06 268.14 273.31 -19.03zm-290.5 111.93l-73.64 290.5 -121.3 8.63 244.67 -925.65 140.34 -9.67 371.96 882.71 -125.21 8.56 -116.59 -277.44 -320.23 22.36z"/>
   <path class="fil0" d="M10850.88 20828.85l-184.02 -887.06 125.73 -26.34 377.42 389.45c86.48,90.53 157.24,173.1 218.19,255.89l2.58 -1.85c-35.12,-116.36 -59.32,-224.09 -88.25,-361.55l-77.03 -371.73 108.02 -22.36 184.32 887.06 -116.66 24.27 -375.05 -390.99c-82.05,-86.92 -162.48,-175.69 -226.75,-262.9l-3.91 2.06c30.18,110.91 54.16,217.6 84.63,364.44l78.81 379.26 -108.03 22.35z"/>
   <path class="fil0" d="M12786.45 19789.79c27,-3.32 57.99,-13.79 93.19,-29.14 130.09,-55.93 181.37,-154.07 132.45,-267.55 -47.37,-110.09 -149.42,-130.16 -267.33,-79.39 -47.37,20.29 -80.65,40.06 -97.84,52.31l139.53 323.77zm-280.09 -354.46c47.59,-31.51 112.45,-68.26 199.59,-105.74 105.73,-45.53 194.2,-54.9 263.19,-31.51 62.21,20.59 116.36,68.77 148.09,142.93 32.54,75.48 35.72,144.47 12.03,205.93 -30.99,85.6 -109.87,155.4 -214.79,200.7 -32.76,14.02 -62.72,25.46 -90.32,29.67l143.67 333.95 -107.51 46.05 -353.95 -821.98z"/>
   <path class="fil0" d="M14111.28 19649.53l-712.7 -634.34 110.09 -64.05 346.5 315.73c95.26,85.89 179.6,164.54 254.05,243.42l2.58 -1.62c-30.7,-103.08 -55.93,-220.47 -80.13,-343.03l-92.97 -464.64 108.02 -63.01 176.28 946.46 -111.72 65.08z"/>
   <polygon class="fil0" points="14659.88,18324.62 14440.15,18491.75 14380.53,18412.87 14914.67,18007.04 14974.29,18085.92 14753.59,18253.56 15241.62,18896.24 15148.2,18967.3 "/>
   <polygon class="fil0" points="15738.2,17235.38 15817.3,17148.17 16416.3,17689.61 16676.32,17401.99 16749.44,17468.33 16410.84,17842.94 "/>
   <polygon class="fil0" points="16498.79,16482.91 16335.28,16705.23 16255.37,16646.42 16653.37,16106.23 16732.77,16164.82 16568.52,16388.17 17218.5,16866.6 17148.77,16961.12 "/>
   <path class="fil0" d="M17672.14 16010.9c18.52,-23.69 40.36,-61.17 61.98,-100.2 122.56,-218.93 66.33,-404.79 -147.87,-524.03 -186.38,-105.37 -363.4,-65.08 -483.37,150.45 -29.44,52.83 -46.34,95.33 -56.01,125.73l625.27 348.05zm-757.71 -287.1c24.72,-68.48 59.32,-146.54 104.11,-227.27 81.46,-146.31 174.65,-231.91 278.03,-265.26 103.59,-35.12 218.33,-25.53 345.91,45.6 129.86,72.31 212.13,171.26 244.45,285.26 32.02,115.85 4.65,260.84 -81.02,414.16 -40.8,73.13 -77.25,132.45 -112.45,181.15l-779.03 -433.64z"/>
   <path class="fil0" d="M963.29 5518.11l-738.75 -525.58 74.67 -104.63 541.74 28.92c124.92,7.75 232.94,20 333.96,39.26l0.74 -3.1c-104.85,-61.47 -196.28,-123.89 -310.5,-205.35l-309.24 -220.25 63.76 -89.8 738.45 525.58 -68.92 96.81 -541.44 -31.73c-118.72,-7.82 -238.48,-18.22 -344.95,-38.29l-1.04 3.91c97.62,60.87 187.42,122.85 309.54,209.77l315.73 224.68 -63.75 89.8z"/>
   <path class="fil0" d="M1747.2 3932.59l-253.24 -110.31c-56.74,-25.53 -105.66,-52.1 -153.33,-77.63l-1.84 2.66c30.18,45.01 61.17,93.19 90.09,143.66l133.04 243.42 185.28 -201.8zm-134.3 281.12l146.84 261.65 -82.27 89.5 -459.18 -840.2 95.26 -103.6 876.95 384.94 -84.56 92.16 -275.66 -121.3 -217.38 236.85z"/>
   <path class="fil0" d="M2660.3 3571.18l-819.69 -487.28 95.77 -83.83 399.85 243.87c109.87,66.7 207.71,127.58 295.74,191.11l2.06 -2.07c-49.73,-95.55 -96.88,-205.94 -143.73,-321.78l-179.6 -438.37 94.52 -82.2 352.18 895.7 -97.1 84.85z"/>
   <path class="fil0" d="M3467.89 2467.34l-222.83 -162.7c-49.95,-37.49 -92.16,-73.94 -132.74,-108.84l-2.59 1.85c19.48,50.76 39.55,104.33 56.75,160.04l76.81 266.3 224.6 -156.65zm-191.84 245.19l86.18 287.32 -99.46 69.51 -265.78 -919.89 115.62 -80.43 772.32 566.46 -102.85 71.27 -242.61 -178.04 -263.42 183.8z"/>
   <polygon class="fil0" points="3893.2,1577.99 3996.28,1521.76 4382.25,2230.78 4722.48,2045.72 4769.63,2132.42 4326.03,2373.7 "/>
   <path class="fil0" d="M5794.6 1532.46c60.14,14.02 140.86,14.02 217.08,-11.73 113.48,-38.51 159.82,-120.49 130.16,-207.41 -27.08,-79.4 -89.5,-110.68 -220.18,-114.59 -156.72,-2.07 -268.95,-46.04 -309.76,-166.32 -45.6,-133.55 31.73,-270.42 198.86,-327.46 87.21,-29.44 159.01,-31.51 203.5,-22.87l0 101.45c-32.76,-7.01 -98.65,-11.95 -175.91,14.39 -117.91,40.29 -138.49,125.14 -118.72,183.73 27.08,79.39 92.68,101.01 226.75,106.47 164.98,7.53 262.09,52.61 305.03,178.34 44.79,131.71 -12.76,280.54 -216.05,349.83 -83.3,28.11 -181.95,34.08 -238.4,18.74l-2.36 -102.57z"/>
   <path class="fil0" d="M6857.64 860.49l116.66 -26.27c122.33,-27.37 184.83,-111.19 161.88,-212.72 -25.53,-114.74 -119.75,-146.03 -240.25,-119.17 -55.19,12.25 -92.38,26.05 -110.6,35.42l72.31 322.74zm-204.54 -376.9c55.42,-24.72 136.88,-50.76 215.53,-68.25 121.31,-27.3 206.38,-22.06 272.5,15.12 52.61,28.93 91.64,83.31 106.99,152.52 26.27,116.14 -30.48,210.07 -115.85,262.68l0.52 3.39c72.9,8.56 127.8,63.24 170,149.94 57.04,117.1 96.81,197.01 122.64,227.48l-118.51 26.56c-19.99,-22.43 -56.74,-93.48 -105.88,-198.63 -53.42,-115.33 -111.71,-151.48 -215.82,-131.71l-108.25 24.5 85.89 383.17 -114 25.46 -195.76 -872.23z"/>
   <polygon class="fil0" points="7936.47,235.37 8052.83,1133.94 7936.25,1149.07 7820.11,250.5 "/>
   <path class="fil0" d="M8780.22 163.51l117.61 -5.76 29.44 605.2c11.74,241.06 -102.56,320.97 -258.47,328.27 -43.76,2.29 -96.59,-4.43 -126.25,-14.83l12.47 -96.36c24.72,8.11 59.84,14.31 99.98,12.54 104.11,-5.24 162.92,-55.71 154.36,-233.24l-29.14 -595.82z"/>
   <path class="fil0" d="M9981.53 706.43l-74.96 -265.49c-16.38,-60.13 -27.08,-114.81 -37.19,-167.64l-3.1 0c-16.16,52.09 -33.35,106.47 -54.16,160.85l-104.11 256.93 273.52 15.35zm-302.15 74.74l-109.65 278.99 -121.3 -6.72 358.97 -887.65 140.34 8.05 258.18 922.25 -124.92 -7.01 -80.95 -289.98 -320.67 -17.93z"/>
   <path class="fil0" d="M10710.84 1158.96l162.7 -891.86 126.47 23.17 203.87 502.63c46.04,116.66 80.65,219.74 106.18,319.42l3.1 -0.81c11.21,-120.71 29.22,-230.06 53.93,-368.27l68.4 -373.8 108.62 19.78 -162.7 892.08 -116.88 -21.4 -201.21 -503.67c-43.46,-111.42 -84.86,-223.87 -111.42,-329.01l-4.43 0.51c-13.8,114.3 -31.51,222.32 -58.29,369.6l-69.8 381.4 -108.54 -19.77z"/>
   <path class="fil0" d="M12856.84 1239.53c21.62,16.38 51.28,30.4 87.22,44.2 132.44,50.54 237.37,15.94 281.64,-99.69 42.65,-112.15 -16.46,-197.52 -136.43,-243.12 -48.18,-18.45 -85.89,-27.6 -106.7,-30.92l-125.73 329.53zm46.34 -449.58c56.45,10.7 128.31,29.66 216.78,63.53 107.51,40.88 177.31,96.07 210.59,160.86 30.47,58.07 35.71,130.45 7.08,205.64 -29.73,76.81 -75.26,128.61 -135.1,156.2 -82.05,39.55 -187.42,34.91 -294.19,-5.97 -33.27,-12.55 -62.71,-25.31 -85.37,-41.69l-129.64 339.71 -109.28 -41.61 319.13 -836.67z"/>
   <path class="fil0" d="M13776.51 2139.28l152 -941.51 113.27 58.29 -79.91 461.53c-21.62,126.77 -42.21,240.25 -69.22,345.1l3.1 1.33c70.54,-81.24 155.91,-165.58 246.01,-251.68l342 -328.28 111.19 57.55 -703.62 657 -114.82 -59.33z"/>
   <polygon class="fil0" points="15215.05,2043.14 14985.73,1889.29 15040.92,1807.32 15598.23,2181.12 15543.33,2263.1 15312.67,2108.74 14863.17,2779.53 14765.25,2713.93 "/>
   <polygon class="fil0" points="16612.42,3007.97 16697.5,3089.21 16139.67,3673.6 16420.06,3941.15 16351.58,4012.72 15986.34,3663.93 "/>
   <polygon class="fil0" points="17343.49,3899.6 17162.28,3691.08 17237.02,3626.3 17677.45,4132.84 17602.71,4197.63 17420.75,3988.37 16811.42,4518.3 16734.09,4429.54 "/>
   <path class="fil0" d="M17429.38 5151.91c12.77,27.08 36.75,63.53 61.69,100.2 140.86,207.71 332.7,240.25 535.17,102.34 177.53,-119.75 220.77,-295.74 81.24,-499.83 -33.87,-49.73 -64.27,-84.04 -86.92,-106.47l-591.18 403.76zm595.83 -549.27c50.02,52.61 104.4,118.72 156.72,194.72 94.52,138.5 129.35,260.32 112.75,367.53 -14.91,108.03 -74.97,206.46 -195.54,288.73 -122.56,83.82 -248.07,113.19 -364.43,91.05 -117.91,-23.17 -235.01,-112.67 -334.18,-257.44 -47.37,-69.51 -83.82,-128.83 -111.71,-181.66l736.39 -502.93z"/>
   <path class="fil0" d="M7865.34 15140.37c-505.29,0 -936.05,-177.83 -1291.63,-533.63 -355.8,-355.79 -533.84,-786.34 -533.84,-1291.85l0 -4610.76c0,-235.82 -83.31,-436.74 -249.4,-603.13 -166.1,-166.31 -365.47,-249.32 -597.16,-249.32 -235.52,0 -436.52,83.01 -602.83,249.32 -166.61,166.39 -249.4,367.31 -249.4,603.13l0 5482.48c0,218.92 -49.44,388.41 -148.6,508.6 -98.95,119.76 -211.62,206.46 -337.87,258.77 -126.55,52.83 -288.65,89.58 -486.25,110.61l0 -6360.46c0,-501.08 174.65,-926.17 523.95,-1275.77 349.6,-349.52 783.25,-530.74 1301,-543.21 501.38,0 926.69,174.65 1276.29,524.25 349.08,349.6 530.52,781.18 543.21,1294.73l0 4610.76c0,236.05 83.09,437.04 249.4,603.35 166.09,166.32 367.31,249.4 603.13,249.4 235.6,0 437.04,-83.08 603.13,-249.4 166.31,-166.31 249.32,-367.3 249.32,-603.35l0 -5482.25c0,-218.92 48.7,-388.34 145.51,-508.61 96.88,-119.76 209.33,-206.16 337.87,-258.77 128.39,-52.83 289.46,-87.44 483.15,-104.33l0 6353.96c0,505.51 -173.62,932.88 -521.15,1282.19 -347.24,349.6 -779.85,530.82 -1297.83,543.29z"/>
   <path class="fil0" d="M13650.93 15064.59l-2557.95 0c-218.93,0 -388.41,-49.44 -508.61,-148.31 -120.05,-98.95 -206.46,-211.69 -258.77,-338.16 -52.83,-126.25 -89.58,-288.44 -110.61,-486.26l3435.94 0c362.14,0 670.57,-127.28 925.65,-382.14 254.34,-254.78 381.62,-560.92 381.62,-919.08 0,-361.85 -127.28,-671.6 -381.62,-928.23 -255.08,-256.93 -563.51,-385.54 -925.65,-385.54l-1439.94 0c-417.04,0 -797.34,-101.01 -1140.15,-302.96 -343.11,-202.25 -615.6,-474.82 -817.85,-818.15 -202.25,-343.1 -303.26,-720.81 -303.26,-1133.65 0,-416.97 102.05,-795.71 306.14,-1136.97 204.32,-340.97 477.1,-613.54 818.07,-817.85 341.04,-204.39 720.01,-306.36 1137.05,-306.36l3214.72 0c-21.1,197.82 -56.52,360 -107.5,486.47 -50.55,126.25 -135.4,238.99 -255.6,337.65 -120.05,99.17 -289.24,148.31 -508.39,148.31l-2343.23 0c-354.03,4.43 -659.14,128.9 -916.06,373.06 -248.29,269.4 -372.47,574.43 -372.47,915.69 0,353.81 125.21,656.77 375.86,909.49 250.44,252.5 554.44,378.75 912.67,378.75l1439.94 0c417.04,0 797.85,102.34 1143.54,306.65 344.88,204.32 618.7,477.92 820.73,821.02 202.02,343.33 305.62,725.47 309.53,1146.35l0 6.27c-16.97,644.23 -239.29,1180.21 -666.14,1607.58 -427.67,427.45 -963.36,649.47 -1607.66,666.37z"/>
  </g>
 </g>
</svg>
