<?xml version="1.0" encoding="UTF-8"?>
<!DOCTYPE svg PUBLIC "-//W3C//DTD SVG 1.1//EN" "http://www.w3.org/Graphics/SVG/1.1/DTD/svg11.dtd">
<!-- Creator: CorelDRAW -->
<svg xmlns="http://www.w3.org/2000/svg" xml:space="preserve" width="185mm" height="213mm" version="1.1" style="shape-rendering:geometricPrecision; text-rendering:geometricPrecision; image-rendering:optimizeQuality; fill-rule:evenodd; clip-rule:evenodd"
viewBox="0 0 18500 21300"
 xmlns:xlink="http://www.w3.org/1999/xlink"
 xmlns:xodm="http://www.corel.com/coreldraw/odm/2003">
 <defs>
  <style type="text/css">
   <![CDATA[
    .fil0 {fill:#2C2C30;fill-rule:nonzero}
   ]]>
  </style>
 </defs>
 <g id="Layer_x0020_1">
  <metadata id="CorelCorpID_0Corel-Layer"/>
  <g id="_2647874022448">
   <path class="fil0" d="M576.68 15874.54l773.88 -471.65 66.93 109.87 -239.81 486.48c-56.45,111.71 -110.31,206.16 -168.09,291.53l2.81 1.55c97.91,-71.8 191.1,-131.2 310.86,-204.32l324.3 -197.52 57.55 93.93 -774.17 471.64 -61.69 -101.46 242.61 -485c54.16,-106.18 110.39,-211.84 171.26,-301.93l-3.39 -2.58c-94.45,65.59 -187.13,123.88 -314.93,201.73l-330.64 201.73 -57.48 -94z"/>
   <path class="fil0" d="M1898.06 17123.3l146.54 -233.98c33.8,-52.61 67.15,-97.1 99.17,-140.04l-1.84 -2.66c-49.44,23.17 -101.24,47.15 -155.69,67.96l-260.25 95.77 172.07 212.95zm-258.25 -173.84l-280.32 106.18 -76.59 -94.52 899.1 -330.27 88.54 109.57 -510.46 811.06 -78.88 -97.62 160.64 -254.56 -202.03 -249.84z"/>
   <path class="fil0" d="M2266.63 18079.35l419.33 -856.14 91.13 88.76 -210.89 418.37c-56.96,114.52 -110.09,217.08 -166.02,309.76l2.07 2.06c91.35,-57.25 197.31,-112.96 308.72,-169.19l422.21 -214.27 89.8 87.21 -864.19 423.54 -92.16 -90.1z"/>
   <path class="fil0" d="M3550.3 18685.88l87 -261.57c20.51,-59.11 42.42,-110.39 63.23,-160.12l-2.36 -1.55c-42.43,34.09 -87.44,69.51 -135.1,102.78l-230.37 154.36 217.6 166.1zm-292.05 -108.02l-247.26 169.7 -96.58 -73.63 795.2 -533.41 111.93 85.37 -304.29 908.46 -99.4 -75.7 95.56 -285.56 -255.16 -195.23z"/>
   <polygon class="fil0" points="4483.56,18681.82 4585.02,18741.44 4176.61,19437.76 4510.57,19633.74 4460.91,19718.89 4025.12,19463.51 "/>
   <path class="fil0" d="M5700.38 20137.04c38,48.4 101.53,98.65 177.31,125.73 112.46,40.58 199.6,5.46 230.88,-81.02 28.34,-79.1 -1.32,-142.33 -100.72,-226.67 -121.6,-99.46 -181.73,-203.58 -139.01,-323.04 47.89,-132.74 193.91,-191.84 359.71,-132.22 86.7,31.21 143.96,74.45 173.4,109.05l-63.01 79.1c-21.33,-25.97 -69.81,-70.76 -146.54,-98.35 -117.4,-42.21 -186.39,11.43 -207.2,69.72 -28.63,79.18 9.08,136.95 110.83,224.68 124.18,108.77 172.37,204.32 127.36,329.24 -47.15,131.19 -184.62,211.62 -387.09,139.31 -82.27,-29.96 -163.22,-87 -197.82,-134.07l61.9 -81.46z"/>
   <path class="fil0" d="M6967.09 20181.38l116.65 27.08c122.05,28.34 214.43,-20.07 238.11,-121.08 26.86,-114.52 -44.19,-183.51 -164.47,-211.84 -54.89,-12.77 -94.74,-16.68 -115.03,-16.16l-75.26 322zm-20.07 -428.18c60.43,1.77 144.99,13.8 223.35,32.25 121.08,27.89 195.54,69.8 239,132 34.6,48.92 46.33,115.03 29.88,183.73 -26.78,116.14 -118.94,175.98 -218.34,186.38l-0.81 3.18c61.69,39.25 87.44,112.45 87.74,208.96 0.22,129.94 1.32,219.22 11.43,257.74l-118.43 -27.6c-7.82,-28.41 -10.4,-108.54 -8.56,-224.68 2.07,-126.99 -35.19,-184.76 -137.24,-212.36l-108.02 -25.01 -88.99 382.14 -113.78 -26.27 202.77 -870.46z"/>
   <polygon class="fil0" points="8138.97,19967.92 8019.73,20866.49 7903.15,20850.92 8022.39,19952.35 "/>
   <path class="fil0" d="M8899.79 20031.01l117.69 5.16 -26.86 604.98c-10.92,240.76 -131.93,309.75 -287.84,302.74 -43.76,-1.84 -95.55,-13.57 -124.18,-26.85l21.32 -94.45c23.69,10.4 58.07,19.77 98.43,21.62 103.82,4.65 167.06,-40.14 174.88,-217.67l26.56 -595.53z"/>
   <path class="fil0" d="M10057.22 20535.34l-107.51 -254.05c-23.69,-57.77 -41.18,-110.68 -58.07,-161.66l-3.1 0c-9.67,53.86 -19.78,110.08 -33.58,166.61l-70.83 268.06 273.09 -18.96zm-290.5 111.93l-73.72 290.5 -121.01 8.56 244.46 -925.65 140.56 -9.6 371.67 882.71 -124.92 8.56 -116.66 -277.51 -320.38 22.43z"/>
   <path class="fil0" d="M10936.46 20806.58l-184.24 -887.14 125.65 -26.27 377.5 389.38c86.4,90.61 157.17,173.1 218.11,255.89l2.88 -1.77c-35.12,-116.36 -59.62,-224.17 -88.25,-361.63l-77.33 -371.66 108.03 -22.44 184.54 887.14 -116.58 24.2 -375.36 -390.99c-81.76,-86.92 -162.4,-175.69 -226.75,-262.9l-3.61 2.14c30.18,111.12 53.86,217.59 84.34,364.35l78.87 379.27 -107.8 22.43z"/>
   <path class="fil0" d="M12871.75 19767.52c27.08,-3.4 58,-13.8 93.19,-29.15 130.16,-56 181.67,-154.14 132.45,-267.62 -47.37,-110.09 -149.12,-130.16 -267.04,-79.4 -47.37,20.37 -80.94,40.14 -98.13,52.32l139.53 323.85zm-280.1 -354.55c47.89,-31.51 112.45,-68.18 199.67,-105.66 105.96,-45.53 194.13,-54.9 263.13,-31.51 62.2,20.59 116.36,68.7 148.16,142.93 32.54,75.48 35.86,144.47 12.18,205.86 -31.22,85.67 -109.8,155.4 -215.02,200.7 -32.76,14.09 -62.72,25.53 -90.02,29.66l143.66 333.96 -107.5 46.12 -354.26 -822.06z"/>
   <path class="fil0" d="M14196.89 19627.25l-712.71 -634.42 110.09 -63.97 346.51 315.73c94.96,85.89 179.59,164.47 253.75,243.35l2.88 -1.55c-30.7,-103.08 -56.23,-220.48 -80.43,-343.11l-92.9 -464.63 108.25 -62.94 176.2 946.46 -111.64 65.08z"/>
   <polygon class="fil0" points="14745.2,18302.34 14525.54,18469.39 14465.92,18390.51 15000.06,17984.76 15059.9,18063.64 14838.91,18231.21 15327.24,18873.96 15233.53,18945.02 "/>
   <polygon class="fil0" points="15823.82,17213.03 15902.7,17125.81 16501.85,17667.26 16761.95,17379.64 16835.07,17446.04 16496.17,17820.58 "/>
   <polygon class="fil0" points="16584.12,16460.62 16420.61,16682.94 16341,16624.06 16738.71,16083.94 16818.1,16142.53 16653.85,16365.88 17304.14,16844.31 17234.34,16938.76 "/>
   <path class="fil0" d="M17757.78 15988.54c18.45,-23.69 40.07,-61.17 61.98,-100.2 122.34,-218.93 66.12,-404.8 -148.16,-523.96 -186.39,-105.44 -363.4,-65.08 -483.38,150.45 -29.37,52.83 -46.34,95.26 -55.93,125.73l625.49 347.98zm-757.72 -287.11c24.72,-68.47 59.03,-146.54 103.82,-227.26 81.76,-146.24 174.65,-231.91 278.25,-265.26 103.38,-35.12 218.41,-25.46 345.69,45.6 129.94,72.38 212.14,171.26 244.46,285.26 32.02,115.84 4.65,260.83 -80.72,414.16 -40.88,73.12 -77.55,132.52 -112.45,181.15l-779.05 -433.65z"/>
   <path class="fil0" d="M1048.48 5495.72l-738.46 -525.51 74.45 -104.63 541.67 28.85c125.22,7.83 233.24,20.07 333.96,39.33l0.81 -3.1c-104.7,-61.46 -196.05,-123.96 -310.57,-205.42l-309.24 -220.18 64.05 -89.8 738.24 525.51 -68.99 96.88 -541.23 -31.8c-118.95,-7.82 -238.41,-18.22 -344.88,-38.22l-1.26 3.84c97.55,60.94 187.42,122.93 309.47,209.85l316.03 224.6 -64.05 89.8z"/>
   <path class="fil0" d="M1832.47 3910.27l-253.02 -110.39c-56.74,-25.45 -105.96,-52.02 -153.33,-77.55l-2.14 2.59c30.25,45.08 61.47,93.19 90.09,143.73l133.04 243.35 185.36 -201.73zm-134.08 281.13l146.55 261.64 -82.28 89.51 -458.88 -840.29 94.97 -103.59 877.25 385.02 -84.86 92.16 -275.44 -121.31 -217.31 236.86z"/>
   <path class="fil0" d="M2745.51 3548.79l-819.7 -487.29 95.85 -83.82 400.07 243.94c109.57,66.63 207.71,127.58 295.44,191.03l2.36 -2.06c-50.02,-95.56 -97.1,-205.87 -143.73,-321.71l-179.6 -438.37 94.22 -82.27 352.49 895.69 -97.4 84.86z"/>
   <path class="fil0" d="M3553.18 2444.94l-222.84 -162.7c-50.02,-37.48 -92.16,-73.93 -132.74,-108.83l-2.66 1.84c19.56,50.77 39.63,104.41 56.75,160.12l76.81 266.29 224.68 -156.72zm-191.62 245.19l85.88 287.4 -99.39 69.51 -265.78 -919.97 115.55 -80.43 772.33 566.46 -102.56 71.28 -242.62 -178.05 -263.41 183.8z"/>
   <polygon class="fil0" points="3978.42,1555.59 4081.79,1499.37 4467.55,2208.46 4808,2023.4 4854.86,2110.02 4411.32,2351.38 "/>
   <path class="fil0" d="M5879.91 1510.14c60.13,14.02 140.78,14.02 217.08,-11.73 113.48,-38.52 159.82,-120.57 130.16,-207.49 -27.08,-79.39 -89.58,-110.61 -220.25,-114.52 -156.73,-2.06 -268.88,-46.11 -309.76,-166.31 -45.31,-133.55 32.02,-270.5 198.85,-327.47 87.22,-29.44 159.09,-31.5 203.88,-22.94l0 101.53c-32.84,-7.01 -98.95,-11.96 -175.99,14.31 -117.91,40.36 -138.71,125.22 -118.94,183.8 27.08,79.4 92.68,101.02 226.97,106.48 164.99,7.52 262.09,52.53 304.81,178.27 45.01,131.7 -12.76,280.61 -216.05,349.82 -83.08,28.11 -181.73,34.16 -238.47,18.74l-2.29 -102.49z"/>
   <path class="fil0" d="M6942.96 838.17l116.58 -26.35c122.34,-27.3 184.84,-111.12 162.19,-212.65 -25.76,-114.81 -119.98,-146.02 -240.55,-119.24 -55.19,12.25 -92.38,26.05 -110.61,35.42l72.39 322.82zm-204.39 -376.98c55.49,-24.72 136.65,-50.76 215.31,-68.18 121.3,-27.3 206.38,-22.13 272.79,15.13 52.31,28.85 91.35,83.3 106.99,152.51 26.27,116.07 -30.69,210.08 -116.07,262.61l0.74 3.4c72.61,8.63 127.58,63.3 169.71,149.93 57.04,117.17 96.88,197.08 122.64,227.56l-118.43 26.49c-19.78,-22.36 -56.74,-93.42 -105.96,-198.56 -53.35,-115.33 -111.42,-151.49 -215.83,-131.71l-108.02 24.42 85.89 383.18 -114.01 25.53 -195.75 -872.31z"/>
   <polygon class="fil0" points="8021.8,213.05 8138.38,1111.62 8021.8,1126.67 7905.44,228.17 "/>
   <path class="fil0" d="M8865.48 141.1l117.69 -5.68 29.37 605.2c11.73,240.99 -102.57,320.9 -258.18,328.2 -43.98,2.36 -96.89,-4.42 -126.55,-14.83l12.77 -96.29c24.72,8.04 59.62,14.31 99.68,12.47 104.12,-5.16 163,-55.71 154.37,-233.24l-29.15 -595.83z"/>
   <path class="fil0" d="M10067.1 684.1l-74.97 -265.56c-16.67,-60.06 -27.07,-114.74 -37.48,-167.57l-3.1 0c-15.86,52.02 -33.05,106.4 -53.86,160.86l-104.19 256.92 273.6 15.35zm-302.23 74.67l-109.79 279.06 -121.09 -6.79 358.68 -887.57 140.34 8.04 258.26 922.26 -125 -7.01 -80.94 -289.98 -320.46 -18.01z"/>
   <path class="fil0" d="M10796.41 1136.56l162.7 -891.79 126.55 23.17 203.5 502.64c46.12,116.65 80.95,219.73 106.26,319.42l3.1 -0.81c11.21,-120.79 29.14,-230.07 54.16,-368.34l68.18 -373.81 108.54 19.85 -162.7 892.01 -116.88 -21.33 -200.93 -503.66c-43.46,-111.42 -84.85,-223.87 -111.71,-329.02l-4.13 0.52c-13.8,114.22 -31.73,222.24 -58.59,369.59l-69.51 381.33 -108.54 -19.77z"/>
   <path class="fil0" d="M12942.14 1217.13c21.84,16.38 51.28,30.48 87.22,44.28 132.74,50.47 237.37,15.86 281.64,-99.69 42.65,-112.23 -16.38,-197.6 -136.13,-243.13 -48.41,-18.52 -86.19,-27.59 -106.99,-30.99l-125.74 329.53zm46.34 -449.5c56.52,10.62 128.32,29.66 217.08,63.45 107.51,40.88 177.02,96.07 210.37,160.86 30.4,58.07 35.64,130.45 7.01,205.64 -29.44,76.81 -75.26,128.61 -135.11,156.21 -81.97,39.55 -187.19,34.9 -294.11,-5.98 -33.06,-12.47 -62.79,-25.24 -85.45,-41.69l-129.35 339.71 -109.57 -41.61 319.13 -836.59z"/>
   <path class="fil0" d="M13862.12 2116.89l151.78 -941.52 113.48 58.29 -80.2 461.54c-21.33,126.76 -42.14,240.25 -68.99,345.17l2.87 1.33c70.84,-81.24 155.92,-165.58 246.01,-251.76l342 -328.2 111.2 57.48 -703.63 656.99 -114.52 -59.32z"/>
   <polygon class="fil0" points="15300.38,2020.82 15071.05,1866.97 15126.24,1784.92 15683.85,2158.72 15628.66,2240.77 15398.29,2086.41 14948.49,2757.21 14850.57,2691.61 "/>
   <polygon class="fil0" points="16697.76,2985.65 16782.91,3066.82 16225.3,3651.2 16505.39,3918.83 16437.21,3990.4 16071.75,3641.61 "/>
   <polygon class="fil0" points="17429.06,3877.21 17247.91,3668.77 17322.66,3603.91 17762.8,4110.45 17688.35,4175.31 17506.39,3965.98 16896.76,4495.99 16819.73,4407.22 "/>
   <path class="fil0" d="M17514.73 5129.59c12.76,27.01 36.74,63.46 61.98,100.2 140.86,207.71 332.7,240.25 534.95,102.27 177.76,-119.75 220.7,-295.66 81.46,-499.75 -33.86,-49.74 -64.34,-84.12 -87.21,-106.48l-591.18 403.76zm595.83 -549.27c50.02,52.84 104.41,118.73 156.72,194.73 94.52,138.42 129.64,260.24 112.75,367.53 -14.61,108.02 -74.75,206.38 -195.24,288.65 -122.64,83.82 -248.37,113.26 -364.73,91.13 -117.91,-23.17 -235.01,-112.75 -333.96,-257.44 -47.37,-69.51 -84.05,-128.83 -111.94,-181.67l736.4 -502.93z"/>
   <path class="fil0" d="M7950.89 15118.08c-505.29,0 -936.36,-177.83 -1291.94,-533.63 -355.58,-355.87 -533.85,-786.41 -533.85,-1291.93l0 -4610.7c0,-235.82 -83.08,-436.81 -249.4,-603.13 -166.09,-166.31 -365.17,-249.4 -596.86,-249.4 -235.83,0 -436.82,83.09 -603.14,249.4 -166.61,166.32 -249.32,367.31 -249.32,603.13l0 5482.49c0,218.93 -49.51,388.34 -148.39,508.61 -99.17,119.76 -211.62,206.46 -337.87,258.77 -126.55,52.83 -288.95,89.51 -486.55,110.61l0 -6360.48c0,-501.08 174.65,-926.16 524.03,-1275.77 349.53,-349.6 783.25,-530.74 1301.24,-543.21 501.09,0 926.39,174.65 1276,524.25 349.31,349.53 530.53,781.11 543.29,1294.73l0 4610.7c0,236.12 83.01,437.04 249.33,603.43 166.09,166.32 367.31,249.33 603.43,249.33 235.31,0 436.75,-83.01 602.84,-249.33 166.32,-166.39 249.4,-367.31 249.4,-603.43l0 -5482.19c0,-218.92 48.63,-388.41 145.51,-508.68 96.81,-119.69 209.48,-206.16 337.87,-258.7 128.54,-52.83 289.47,-87.44 483.38,-104.41l0 6353.98c0,505.52 -173.92,932.96 -521.16,1282.27 -347.46,349.6 -780.15,530.74 -1297.84,543.29z"/>
   <path class="fil0" d="M13736.53 15042.3l-2558.27 0c-218.92,0 -388.34,-49.44 -508.39,-148.39 -119.98,-98.87 -206.38,-211.62 -258.99,-338.09 -52.84,-126.24 -89.29,-288.43 -110.61,-486.25l3436.26 0c361.86,0 670.29,-127.28 925.37,-382.14 254.34,-254.86 381.92,-560.93 381.92,-919.16 0,-361.77 -127.58,-671.53 -381.92,-928.23 -255.08,-256.93 -563.51,-385.46 -925.37,-385.46l-1440.02 0c-417.27,0 -797.27,-101.02 -1140.38,-303.05 -343.04,-202.25 -615.61,-474.74 -817.86,-818.14 -202.25,-343.04 -303.26,-720.75 -303.26,-1133.58 0,-416.97 102.04,-795.72 306.36,-1136.98 204.09,-341.04 476.88,-613.54 818.15,-817.93 340.75,-204.31 719.72,-306.36 1136.99,-306.36l3214.53 0c-21.1,197.82 -56.52,360.01 -107.21,486.55 -50.55,126.25 -135.62,238.92 -255.9,337.57 -120.05,99.17 -289.24,148.39 -508.1,148.39l-2343.32 0c-353.96,4.43 -659.29,128.83 -916.22,372.99 -248.37,269.47 -372.25,574.5 -372.25,915.77 0,353.73 124.92,656.77 375.65,909.49 250.65,252.5 554.65,378.75 912.82,378.75l1440.02 0c416.75,0 797.86,102.26 1143.26,306.65 344.88,204.32 619,477.92 821.03,820.95 201.95,343.33 305.33,725.47 309.24,1146.42l0 6.2c-16.68,644.31 -239,1180.22 -666.15,1607.66 -427.67,427.37 -963.36,649.47 -1607.38,666.37z"/>
  </g>
 </g>
</svg>
