<svg id="Layer_5" enable-background="new 0 0 62 62" height="300" viewBox="0 0 62 62" width="300" xmlns="http://www.w3.org/2000/svg" version="1.1" xmlns:xlink="http://www.w3.org/1999/xlink" xmlns:svgjs="http://svgjs.dev/svgjs"><g width="100%" height="100%" transform="matrix(1,0,0,1,0,0)"><g><g><g><path d="m25 4c-13.785 0-25 11.215-25 25 0 12.122 8.673 22.252 20.139 24.522.17-.306.485-.522.861-.522-.552 0-1-.448-1-1v-2c0-.552.448-1 1-1h4c-11.028 0-20-8.972-20-20s8.972-20 20-20c8.927 0 16.503 5.881 19.067 13.971 1.557-.763 3.28-1.051 4.961-.856-2.998-10.446-12.631-18.115-24.028-18.115z" fill="#f0bc5e" fill-opacity="1" data-original-color="#f0bc5eff" stroke="none" stroke-opacity="1" style=""/></g></g><g><path d="m47 42h2c1.103 0 2 .897 2 2h2c0-2.206-1.794-4-4-4v-2h-2v2c-2.206 0-4 1.794-4 4s1.794 4 4 4h2c1.103 0 2 .897 2 2s-.897 2-2 2h-2c-1.103 0-2-.897-2-2v-1h-2v1c0 2.206 1.794 4 4 4v2h2v-2c2.206 0 4-1.794 4-4s-1.794-4-4-4h-2c-1.103 0-2-.897-2-2s.897-2 2-2z" fill="#16273e" fill-opacity="1" data-original-color="#000000ff" stroke="none" stroke-opacity="1" style=""/><path d="m19 4.733c.657-.162 1.324-.3 2-.409v-2.324h8v2.327c.676.109 1.343.246 2 .409v-2.736h2v-2h-16v2h2z" fill="#16273e" fill-opacity="1" data-original-color="#000000ff" stroke="none" stroke-opacity="1" style=""/><path d="m8.054 10.64-1.64-1.64 2.586-2.586 1.932 1.932c.564-.386 1.148-.745 1.744-1.084l-3.676-3.676-5.414 5.414 3.054 3.054c.453-.489.925-.961 1.414-1.414z" fill="#16273e" fill-opacity="1" data-original-color="#000000ff" stroke="none" stroke-opacity="1" style=""/><path d="m41 6.414 2.586 2.586-1.648 1.648c.49.453.961.925 1.413 1.415l3.063-3.063-5.414-5.414-3.684 3.684c.596.339 1.175.703 1.74 1.088z" fill="#16273e" fill-opacity="1" data-original-color="#000000ff" stroke="none" stroke-opacity="1" style=""/><path d="m58.406 38.623-4.953-5.504 4.547-3.639v-.48c0-2.809-2.011-5.183-4.781-5.644l-.261-.044.173-.866-.683-.342c-2.425-1.213-5.259-1.367-7.79-.468-3.061-8.195-10.819-13.636-19.658-13.636-11.58 0-21 9.421-21 21 0 9.562 6.43 17.635 15.189 20.164-.118.255-.189.537-.189.836v2c0 .366.106.705.278 1-.172.295-.278.634-.278 1v2c0 .366.106.705.278 1-.172.295-.278.634-.278 1v2c0 1.103.897 2 2 2h10 8c1.065 0 1.93-.839 1.989-1.889 2.12 1.234 4.507 1.889 7.011 1.889 7.72 0 14-6.28 14-14.012 0-3.465-1.276-6.791-3.594-9.365zm-5.516-13.294c1.649.274 2.884 1.591 3.082 3.213l-4.323 3.458h-.429l1.345-6.725zm-2.028-1.739-1.682 8.41h-2.36l-1.682-8.41c1.836-.705 3.888-.705 5.724 0zm-6.511 8.41-4.323-3.458c.198-1.622 1.433-2.938 3.083-3.213l.325-.054 1.344 6.725zm-1.425-9.271.117.584-.261.044c-2.771.46-4.782 2.834-4.782 5.643v.48l4.548 3.638-4.953 5.504c-1.388 1.542-2.393 3.393-2.985 5.377h-4.61c-1.103 0-2 .897-2 2v2h-2v-4h-2v3.949c-4.484-.235-8.553-2.023-11.688-4.847l2.788-2.789-1.414-1.414-2.788 2.789c-2.824-3.134-4.612-7.203-4.847-11.687h3.949v-2h-3.949c.235-4.484 2.024-8.553 4.847-11.688l2.788 2.789 1.414-1.414-2.788-2.789c3.135-2.824 7.204-4.612 11.688-4.847v3.949h2v-3.96c4.453.23 8.551 1.98 11.715 4.83l-2.816 2.816 1.414 1.414 2.814-2.814c1.648 1.834 2.949 4.008 3.799 6.443zm-21.926 31.271h10l.001 2h-.001-10zm12-4h6v2h-6zm0 4h6v2h-6zm6-6h-8-1v-2h9l.001 2zm-9 2h1l.001 2h-.001-10v-2zm-9 10v-2h10l.001 2h-.001zm18 0h-6v-2h6zm9 0c-2.558 0-4.976-.794-7.029-2.285-.037-.258-.123-.499-.249-.715.172-.295.278-.634.278-1v-2c0-.366-.106-.705-.278-1 .172-.295.278-.634.278-1v-2c0-.366-.106-.705-.278-1 .172-.295.278-.634.278-1v-2c0-1.103-.897-2-2-2h-2.305c.525-1.484 1.33-2.865 2.385-4.039l5.365-5.961h7.109l5.365 5.961c1.987 2.207 3.081 5.058 3.081 8.039 0 6.617-5.383 12-12 12z" fill="#16273e" fill-opacity="1" data-original-color="#000000ff" stroke="none" stroke-opacity="1" style=""/><path d="m28.407 25.362-1.257-7.541c-.176-1.055-1.08-1.821-2.15-1.821s-1.974.766-2.151 1.822l-1.257 7.54c-.974.913-1.592 2.201-1.592 3.638 0 2.757 2.243 5 5 5s5-2.243 5-5c0-1.437-.618-2.725-1.593-3.638zm-3.585-7.211c.029-.176.327-.175.356-.001l1.001 6.005c-.38-.092-.771-.155-1.179-.155s-.799.063-1.179.155zm.178 13.849c-1.654 0-3-1.346-3-3s1.346-3 3-3 3 1.346 3 3-1.346 3-3 3z" fill="#16273e" fill-opacity="1" data-original-color="#000000ff" stroke="none" stroke-opacity="1" style=""/><circle cx="25" cy="29" r="1" fill="#16273e" fill-opacity="1" data-original-color="#000000ff" stroke="none" stroke-opacity="1" style=""/></g></g></g></svg>