<svg xmlns="http://www.w3.org/2000/svg" viewBox="0 0 64 64" width="300" height="300" version="1.1" xmlns:xlink="http://www.w3.org/1999/xlink" xmlns:svgjs="http://svgjs.dev/svgjs"><g width="100%" height="100%" transform="matrix(1,0,0,1,0,0)"><g id="Icon"><path d="M36,35H32.81573a2.99556,2.99556,0,0,0-1.8125-1.81476l.03241-8.18133A1.00036,1.00036,0,0,0,30.03955,24h-.00391a1.00017,1.00017,0,0,0-1,.99609l-.03241,8.18714A2.99253,2.99253,0,1,0,32.81573,37H36a1,1,0,0,0,0-2Zm-6,2a1,1,0,1,1,1-1A1.0013,1.0013,0,0,1,30,37Zm23.38947,4.3139A23.38784,23.38784,0,0,0,49.3158,21.96338l1.72668-1.73047A3.00408,3.00408,0,0,0,51.04,15.99268l-2.14307-2.144a3.00392,3.00392,0,0,0-4.24267.00049l-1.93244,1.93274A23.73991,23.73991,0,0,0,33,12.20374V9a3.00328,3.00328,0,0,0,3-3V5a3.00328,3.00328,0,0,0-3-3H27a3.00328,3.00328,0,0,0-3,3V6a3.00328,3.00328,0,0,0,3,3v3.20374a23.73931,23.73931,0,0,0-9.72174,3.57806L15.3457,13.84863a3.00392,3.00392,0,0,0-4.24267.00049L8.96,15.99268a3.00348,3.00348,0,0,0-.00244,4.23974l1.72675,1.73084A23.6629,23.6629,0,0,0,6,36,23.99743,23.99743,0,0,0,38.27905,58.5257,11.48729,11.48729,0,1,0,53.38947,41.3139ZM46.06836,15.26367a1.00112,1.00112,0,0,1,1.41455-.00049L49.626,17.40674a1.0017,1.0017,0,0,1,.00048,1.41357L48.0564,20.39417a24.91986,24.91986,0,0,0-3.6695-3.449ZM26,6V5a1.0013,1.0013,0,0,1,1-1h6a1.0013,1.0013,0,0,1,1,1V6a1.0013,1.0013,0,0,1-1,1H27A1.0013,1.0013,0,0,1,26,6Zm3,3h2v3.02631a19.848,19.848,0,0,0-2,0ZM10.37354,18.81982a1.00111,1.00111,0,0,1,.00048-1.41308l2.14307-2.14307a1.00184,1.00184,0,0,1,1.41455-.00049l1.68158,1.68189a24.92594,24.92594,0,0,0-3.66949,3.449ZM30,58A22.02489,22.02489,0,0,1,8,36,22.2946,22.2946,0,0,1,30,14,22.2946,22.2946,0,0,1,52,36a21.879,21.879,0,0,1-.4137,4.20148,11.40726,11.40726,0,0,0-1.90258-.74347A19.5505,19.5505,0,0,0,50,36,20,20,0,1,0,30,56a19.6823,19.6823,0,0,0,5.9455-.94421,11.4799,11.4799,0,0,0,.97808,1.79876A21.82216,21.82216,0,0,1,30,58Zm5-7.5a11.45563,11.45563,0,0,0,.323,2.65991A17.82621,17.82621,0,0,1,31,53.953V51a1,1,0,0,0-2,0v2.94934a17.9,17.9,0,0,1-10.98126-4.554l2.08185-2.08184a.9999.9999,0,0,0-1.41407-1.41407l-2.08184,2.08185A17.9,17.9,0,0,1,12.05066,37H15a1,1,0,0,0,0-2H12.05066a17.9,17.9,0,0,1,4.554-10.98126l2.08184,2.08185a.9999.9999,0,0,0,1.41407-1.41407l-2.08185-2.08184A17.9,17.9,0,0,1,29,18.05066V21a1,1,0,0,0,2,0V18.05066a17.9,17.9,0,0,1,10.98126,4.554l-2.08185,2.08184a.9999.9999,0,0,0,1.41407,1.41407l2.08184-2.08185A17.9,17.9,0,0,1,47.94934,35H45a1,1,0,0,0,0,2h2.96906a17.8986,17.8986,0,0,1-.24463,2.0672A11.48381,11.48381,0,0,0,35,50.5ZM46.5,60A9.5,9.5,0,1,1,56,50.5,9.51081,9.51081,0,0,1,46.5,60Zm.86572-10.92822V46.46484c1.04364-.09289,1.84217,1.19989,2.72315.39264,1.605-2.08154-1.12281-2.72815-2.72315-2.74957v-.44678c-.04187-.4895-.83215-.608-1.16058-.33886-.28748.16229-.17621.58465-.19635.83886-2.54657.21112-4.40106,2.65155-3.24988,5.08069.63715,1.22711,2.04315,1.74579,3.24988,2.223v2.89258c-1.08337-.08368-1.68213-1.15588-2.67865-1.28576-.702.00781-1.19983.87744-1.21393,1.50012.19946,1.64392,2.37317,2.25061,3.89258,2.32129v.44629c.04736.4804.78784.6203,1.14307.33056.315-.17187.19122-.58032.21386-.84814a3.88646,3.88646,0,0,0,3.20557-5.4375C49.97107,50.113,48.58734,49.55237,47.36572,49.07178Zm-1.17822-.42823c-1.41229-.43786-1.59729-1.83306,0-2.125Zm1.77637,5.32081a1.78514,1.78514,0,0,1-.77637.375V51.94678C48.02484,52.21277,48.71173,53.26965,47.96387,53.96436Z" fill="#e2c18c" fill-opacity="1" data-original-color="#000000ff" stroke="none" stroke-opacity="1"/></g></g></svg>