<svg id="Layer_1" viewBox="0 0 512 512" xmlns="http://www.w3.org/2000/svg" data-name="Layer 1" width="300" height="300" version="1.1" xmlns:xlink="http://www.w3.org/1999/xlink" xmlns:svgjs="http://svgjs.dev/svgjs"><g width="100%" height="100%" transform="matrix(1,0,0,1,0,0)"><path d="m24.616 412.915h40.303c4.737 0 8.613 3.876 8.613 8.613v65.861c0 4.737-3.876 8.613-8.613 8.613h-40.303c-4.737 0-8.613-3.876-8.613-8.613v-65.861c0-4.737 3.875-8.613 8.613-8.613zm337.909-296.499-8.377 50.265c-.804 4.824-6.703 6.715-10.161 3.256l-8.241-8.241-102.575 102.576c-1.863 1.863-4.904 1.863-6.767 0l-52.287-52.287-131.309 131.308c-1.863 1.864-4.904 1.864-6.767 0l-18.64-18.64c-1.864-1.863-1.864-4.904 0-6.767l153.331-153.332c1.863-1.864 4.904-1.864 6.767 0l52.287 52.287 80.552-80.552-8.24-8.24c-3.458-3.458-1.568-9.357 3.256-10.161l50.265-8.378c4.078-.68 7.584 2.826 6.905 6.905zm-252.14-83.517-1.676-12.477c-.253-1.886-1.673-3.322-3.556-3.597-7.51-1.098-15.176-1.098-22.686 0-1.883.275-3.302 1.711-3.555 3.597l-1.677 12.477c-5.223 1.419-10.177 3.492-14.768 6.125l-10.011-7.64c-1.513-1.154-3.531-1.166-5.057-.03-6.097 4.538-11.507 9.947-16.045 16.044-1.136 1.526-1.123 3.544.031 5.057l7.639 10.011c-2.633 4.592-4.707 9.545-6.125 14.769l-12.475 1.676c-1.886.254-3.323 1.673-3.598 3.556-1.098 7.51-1.098 15.175 0 22.686.275 1.883 1.711 3.302 3.597 3.556l12.472 1.676c1.418 5.225 3.491 10.18 6.126 14.773l-7.637 10.007c-1.154 1.512-1.166 3.53-.03 5.057 4.538 6.097 9.947 11.507 16.044 16.044 1.526 1.136 3.544 1.124 5.056-.03l10.012-7.64c4.591 2.632 9.544 4.707 14.768 6.125l1.676 12.476c.253 1.887 1.672 3.322 3.556 3.597 7.51 1.098 15.176 1.099 22.686 0 1.883-.276 3.302-1.711 3.555-3.597l1.676-12.477c5.223-1.418 10.177-3.492 14.768-6.124l10.011 7.64c1.513 1.154 3.531 1.166 5.057.03 6.096-4.538 11.506-9.947 16.045-16.044 1.136-1.526 1.124-3.544-.03-5.057l-7.64-10.011c2.633-4.591 4.707-9.545 6.125-14.769l12.476-1.676c1.886-.253 3.322-1.672 3.598-3.556 1.098-7.51 1.098-15.176 0-22.687-.276-1.883-1.711-3.302-3.598-3.555l-12.473-1.676c-1.419-5.225-3.491-10.18-6.126-14.772l7.637-10.007c1.155-1.513 1.166-3.531.03-5.057-4.538-6.096-9.947-11.506-16.044-16.044-1.526-1.136-3.544-1.124-5.057.03l-10.012 7.64c-4.591-2.633-9.544-4.707-14.767-6.125zm-16.574 25.831c-19.373 0-35.079 15.705-35.079 35.078s15.705 35.078 35.079 35.078 35.078-15.705 35.078-35.078-15.705-35.078-35.078-35.078zm347.265-38.362 13.312 32.575 35.095 2.594c6.269.463 8.817 8.307 4.018 12.366l-26.868 22.727 8.378 34.179c1.496 6.105-5.176 10.952-10.519 7.642l-29.917-18.53-29.917 18.53c-5.344 3.309-12.016-1.537-10.519-7.642l8.378-34.179-26.867-22.727c-4.8-4.059-2.251-11.903 4.018-12.366l35.095-2.594 13.312-32.575c2.381-5.827 10.621-5.826 13.002 0zm-26.653 164.842h40.303c4.737 0 8.613 3.875 8.613 8.613v293.566c0 4.737-3.875 8.613-8.613 8.613h-40.303c-4.737 0-8.613-3.876-8.613-8.613v-293.566c0-4.737 3.876-8.613 8.613-8.613zm-97.452 56.926c-4.737 0-8.613 3.876-8.613 8.613v236.639c0 4.737 3.876 8.613 8.613 8.613h40.303c4.738 0 8.613-3.876 8.613-8.613v-236.639c0-4.737-3.875-8.613-8.613-8.613zm-97.452 56.926c-4.737 0-8.613 3.876-8.613 8.613v179.713c0 4.737 3.876 8.613 8.613 8.613h40.303c4.737 0 8.613-3.875 8.613-8.613v-179.713c0-4.737-3.876-8.613-8.613-8.613zm-97.452 56.926h40.303c4.737 0 8.613 3.876 8.613 8.613v122.787c0 4.737-3.876 8.613-8.613 8.613h-40.303c-4.737 0-8.613-3.876-8.613-8.613v-122.787c0-4.737 3.876-8.613 8.613-8.613z" fill-rule="evenodd" fill="#e2c18c" fill-opacity="1" data-original-color="#000000ff" stroke="none" stroke-opacity="1"/></g></svg>