<svg id="Layer_1" viewBox="0 0 512 512" xmlns="http://www.w3.org/2000/svg" data-name="Layer 1" width="300" height="300" version="1.1" xmlns:xlink="http://www.w3.org/1999/xlink" xmlns:svgjs="http://svgjs.dev/svgjs"><g width="100%" height="100%" transform="matrix(1,0,0,1,0,0)"><path d="m148.743 383.814v76.281c0 8.94-7.286 16.214-16.242 16.214h-52.356c-8.956 0-16.243-7.273-16.243-16.214v-76.281c0-8.956 7.287-16.242 16.243-16.242h52.356c8.956 0 16.242 7.286 16.242 16.242zm94.733-64.828h-52.384c-8.956 0-16.243 7.286-16.243 16.243v124.866c0 8.94 7.287 16.214 16.243 16.214h52.384c8.94 0 16.215-7.273 16.215-16.214v-124.866c0-8.957-7.274-16.243-16.215-16.243zm221.896-97.171h-52.356c-8.956 0-16.242 7.286-16.242 16.242v222.038c0 8.94 7.286 16.214 16.242 16.214h52.356c8.956 0 16.243-7.273 16.243-16.214v-222.038c0-8.956-7.287-16.242-16.243-16.242zm33.762-87.046-28.189 20.398 10.805 33.035c1.281 3.846-.078 8.086-3.394 10.517-1.658 1.215-3.601 1.823-5.543 1.823s-3.887-.608-5.545-1.825l-28.087-20.49-28.073 20.5c-3.259 2.391-7.691 2.416-11.015.056-.03-.021-.06-.042-.089-.063-3.302-2.42-4.649-6.661-3.354-10.552l10.793-32.999-28.18-20.371c-3.297-2.419-4.669-6.615-3.454-10.471.011-.036.022-.072.035-.109 1.287-3.865 4.879-6.461 8.938-6.461l34.788.078 10.665-33.031c1.231-3.928 4.816-6.562 8.943-6.562 4.06 0 7.651 2.597 8.938 6.461.007.021.014.041.021.061l10.679 33.07 34.744-.078c4.142 0 7.727 2.613 8.973 6.515 1.271 3.863-.087 8.069-3.4 10.499zm-19.771-2.979-23.868.053c-4.157 0-7.754-2.632-8.986-6.558l-7.314-22.651-7.326 22.687c-1.308 3.926-4.899 6.522-8.959 6.522l-23.902-.053 19.358 13.995c3.271 2.401 4.647 6.575 3.471 10.418-.013.042-.026.084-.04.126l-7.413 22.667 19.251-14.058c1.695-1.203 3.646-1.8 5.581-1.8 1.949 0 3.882.605 5.522 1.808l19.271 14.059-7.416-22.676c-1.302-3.908.092-8.174 3.479-10.579l19.292-13.96zm-124.939 133.253h-52.384c-8.94 0-16.215 7.287-16.215 16.243v178.81c0 8.94 7.274 16.214 16.215 16.214h52.384c8.956 0 16.243-7.273 16.243-16.214v-178.81c0-8.956-7.287-16.243-16.243-16.243zm-119.231-176.603c.022-.075.047-.15.073-.226 1.307-3.813 4.891-6.375 8.919-6.375l34.767.052 10.671-33.071c.014-.042.027-.083.041-.125 1.315-3.828 4.898-6.399 8.918-6.399s7.604 2.572 8.919 6.399c.014.041.027.083.041.125l10.671 33.071 34.756-.052c4.039 0 7.623 2.562 8.93 6.375.026.075.051.15.073.226 1.174 3.844-.207 8.018-3.436 10.384l-28.194 20.383 10.81 33.05c.014.042.027.084.04.126 1.178 3.846-.202 8.021-3.434 10.39-1.66 1.218-3.607 1.828-5.556 1.828-1.947 0-3.895-.609-5.558-1.828l-28.062-20.465-28.075 20.476c-3.4 2.413-7.83 2.386-11.101-.01-3.229-2.367-4.609-6.54-3.436-10.384.014-.044.027-.089.042-.133l10.806-33.035-28.154-20.373c-3.264-2.392-4.645-6.565-3.471-10.41zm23.23 7.423 19.318 13.979c3.366 2.388 4.754 6.677 3.398 10.634l-7.397 22.617 19.296-14.073c3.312-2.426 7.777-2.424 11.101.01l19.281 14.062-7.427-22.707c-1.307-3.811.034-8.074 3.365-10.517l19.372-14.004-23.867.035c-4.133 0-7.729-2.631-8.958-6.548l-7.323-22.696-7.341 22.749c-1.213 3.864-4.809 6.496-8.931 6.496l-23.888-.035zm51.798 84.087c-1.219 3.67.769 7.633 4.438 8.851l29.22 9.703-273.322 134.81c-3.469 1.71-4.894 5.908-3.183 9.376 1.22 2.472 3.702 3.906 6.284 3.906 1.04 0 2.097-.232 3.092-.724l273.607-134.948-9.807 29.548c-1.218 3.67.77 7.633 4.44 8.851.731.243 1.475.358 2.206.358 2.935 0 5.669-1.86 6.645-4.798l15.081-45.439c.025-.075.04-.15.062-.225.041-.139.083-.277.116-.419.025-.108.041-.216.06-.325.021-.116.045-.232.06-.349.016-.118.022-.236.031-.354.009-.109.02-.218.022-.328.004-.118 0-.235-.003-.352-.002-.112-.002-.223-.01-.334-.008-.113-.023-.226-.037-.338-.013-.115-.025-.229-.044-.343-.019-.111-.045-.22-.069-.33-.025-.113-.047-.226-.078-.338-.033-.119-.073-.235-.112-.353-.033-.099-.062-.199-.099-.297-.055-.145-.12-.286-.185-.427-.029-.063-.051-.127-.082-.189-.003-.006-.007-.012-.01-.018-.097-.194-.203-.384-.317-.568-.015-.023-.029-.047-.044-.07-.115-.182-.238-.359-.371-.531-.065-.085-.138-.162-.206-.243-.08-.093-.156-.189-.24-.279-.072-.077-.151-.146-.226-.219-.089-.086-.176-.175-.27-.257-.072-.062-.148-.118-.223-.177-.104-.084-.207-.17-.317-.248-.073-.052-.151-.096-.226-.145-.116-.076-.229-.154-.35-.223-.126-.072-.257-.134-.387-.198-.099-.049-.198-.099-.3-.143-.187-.081-.375-.156-.568-.221-.006-.002-.012-.005-.018-.007l-45.411-15.081c-3.672-1.218-7.633.769-8.852 4.438zm-241.589 53.677c-6.162 5.077-13.641 5.499-18.179 1.023l-17.638-17.637c-4.579-4.579-4.188-11.902.972-18.223l6.878-8.386c-3.06-5.61-5.508-11.52-7.315-17.656l-10.78-1.056c-7.98-.747-13.576-5.758-13.576-12.184v-24.888c0-6.385 5.575-11.406 13.557-12.21l10.803-1.039c1.807-6.13 4.255-12.044 7.316-17.67l-6.872-8.379c-5.1-6.19-5.508-13.682-.981-18.207l17.604-17.603c4.525-4.525 12.017-4.117 18.219.994l8.366 6.861c5.627-3.062 11.54-5.51 17.67-7.317l1.035-10.77c.809-8.014 5.83-13.588 12.214-13.588h24.889c6.425 0 11.437 5.595 12.187 13.605l1.054 10.75c6.137 1.808 12.045 4.256 17.656 7.316l8.373-6.868c6.334-5.172 13.659-5.563 18.236-.982l17.603 17.603c4.511 4.573 4.089 12.051-.993 18.218l-6.879 8.365c3.068 5.615 5.523 11.53 7.334 17.672l10.771 1.036c8.014.807 13.589 5.828 13.589 12.213v24.888c0 6.426-5.596 11.438-13.606 12.187l-10.75 1.053c-1.812 6.148-4.267 12.059-7.333 17.658l6.879 8.364c5.068 6.208 5.482 13.687 1.023 18.208l-17.639 17.638c-4.554 4.494-12.032 4.08-18.222-.973l-8.384-6.895c-5.6 3.067-11.51 5.521-17.658 7.333l-1.057 10.78c-.747 7.981-5.759 13.575-12.184 13.575h-24.889c-6.384 0-11.405-5.574-12.21-13.555l-1.039-10.803c-6.142-1.811-12.057-4.266-17.673-7.334l-8.369 6.883zm51.735-54.844c17.49 0 31.72-14.229 31.72-31.72s-14.229-31.72-31.72-31.72-31.72 14.229-31.72 31.72 14.229 31.72 31.72 31.72z" fill="#16273e" fill-opacity="1" data-original-color="#000000ff" stroke="none" stroke-opacity="1"/></g></svg>