<svg id="Layer_1" enable-background="new 0 0 512 512" viewBox="0 0 512 512" xmlns="http://www.w3.org/2000/svg" width="300" height="300" version="1.1" xmlns:xlink="http://www.w3.org/1999/xlink" xmlns:svgjs="http://svgjs.dev/svgjs"><g width="100%" height="100%" transform="matrix(1,0,0,1,0,0)"><path clip-rule="evenodd" d="m444.671 173.646c4.868 11.138 8.744 22.705 11.567 34.569l39.762 15.305v64.96l-39.772 15.309c-5.043 21.191-13.444 41.429-24.864 59.977l17.309 38.974-45.934 45.935-38.961-17.305c-18.55 11.425-38.797 19.826-59.993 24.869l-15.304 39.761h-64.96l-15.309-39.772c-21.191-5.043-41.429-13.444-59.977-24.864l-38.975 17.309-45.933-45.933 17.305-38.961c-11.425-18.55-19.825-38.798-24.869-59.993l-39.763-15.306v-64.96l39.768-15.308c2.823-11.862 6.698-23.427 11.566-34.563l39.53 24.293c-7.012 17.999-10.864 37.578-10.864 58.059 0 88.373 71.627 159.999 160 159.999s160-71.626 160-159.999c0-20.481-3.851-40.061-10.865-58.058zm-355.5-87.888c-2.152-.968-4.38 1.26-3.412 3.412l14.314 31.835c.43.957.263 2.015-.442 2.792l-23.451 25.854c-1.595 1.758-.169 4.557 2.191 4.3l34.7-3.775c1.043-.114 1.997.373 2.519 1.284l17.342 30.292c1.18 2.06 4.281 1.569 4.766-.755l7.132-34.168c.214-1.027.972-1.785 1.999-1.999l34.169-7.132c2.324-.485 2.815-3.587.755-4.766l-30.292-17.342c-.91-.521-1.397-1.476-1.283-2.519l3.775-34.7c.257-2.36-2.542-3.786-4.3-2.191l-25.854 23.45c-.777.705-1.836.873-2.793.443zm337.071 3.413c.968-2.152-1.26-4.38-3.412-3.412l-31.835 14.314c-.957.43-2.015.262-2.792-.443l-25.854-23.45c-1.758-1.595-4.557-.169-4.3 2.191l3.775 34.7c.114 1.043-.373 1.998-1.283 2.519l-30.292 17.342c-2.06 1.18-1.569 4.281.755 4.766l34.168 7.132c1.027.214 1.785.972 1.999 1.999l7.133 34.169c.485 2.324 3.587 2.815 4.766.755l17.341-30.292c.521-.911 1.476-1.397 2.519-1.284l34.7 3.775c2.36.257 3.786-2.542 2.191-4.3l-23.45-25.854c-.705-.777-.872-1.836-.443-2.793zm-167.829-71.516 12.389 32.632c.372.981 1.239 1.611 2.287 1.662l34.863 1.699c2.371.115 3.342 3.103 1.491 4.59l-27.206 21.867c-.818.657-1.149 1.676-.874 2.689l9.157 33.682c.623 2.291-1.918 4.137-3.904 2.837l-29.204-19.118c-.878-.575-1.949-.575-2.827 0l-29.204 19.118c-1.986 1.3-4.527-.546-3.904-2.836l9.157-33.682c.275-1.012-.056-2.032-.874-2.689l-27.206-21.867c-1.85-1.487-.88-4.474 1.491-4.59l34.864-1.699c1.048-.051 1.915-.681 2.287-1.662l12.389-32.632c.839-2.208 3.991-2.208 4.828-.001zm-2.413 125.467c-26.466 0-47.92 21.455-47.92 47.92s21.455 47.92 47.92 47.92 47.92-21.455 47.92-47.92-21.454-47.92-47.92-47.92zm-83.62 190.421 167.239-.001c2.833 0 5.271-1.174 7.037-3.39 1.766-2.215 2.368-4.853 1.737-7.615-9.63-42.136-47.339-73.575-92.393-73.575-45.055 0-82.764 31.439-92.394 73.575-.631 2.762-.03 5.4 1.736 7.615 1.767 2.216 4.206 3.391 7.038 3.391z" fill-rule="evenodd" fill="#16273e" fill-opacity="1" data-original-color="#000000ff" stroke="none" stroke-opacity="1"/></g></svg>