<svg clip-rule="evenodd" fill-rule="evenodd" stroke-linejoin="round" stroke-miterlimit="2" viewBox="0 0 510 510" xmlns="http://www.w3.org/2000/svg" width="300" height="300" version="1.1" xmlns:xlink="http://www.w3.org/1999/xlink" xmlns:svgjs="http://svgjs.dev/svgjs"><g width="100%" height="100%" transform="matrix(1,0,0,1,0,0)"><path d="m169.595 344.349 42.159 68.479c1.345 2.186 3.658 3.593 6.218 3.784 2.559.191 5.055-.858 6.71-2.82l1.114-1.321-9.622 46.649c-.515 2.498.191 5.091 1.902 6.982l26.137 28.898h-173.782c-1.44 0-2.81-.621-3.759-1.704-.95-1.082-1.386-2.522-1.198-3.949 8.74-63.664 48.792-117.346 104.121-144.998zm96.192 150.651 26.138-28.898c1.711-1.891 2.417-4.484 1.902-6.982l-9.622-46.649 1.114 1.321c1.692 2.006 4.26 3.054 6.872 2.806s4.936-1.761 6.22-4.049l39.072-69.629c56.838 27.203 98.15 81.648 107.039 146.427.188 1.426-.248 2.864-1.196 3.945-.949 1.082-2.317 1.702-3.755 1.702-30.445.006-173.784.006-173.784.006zm56.899-158.408-32.579 58.06-13.931-16.519c-.033-.04-.066-.079-.1-.119l-9.936-11.781 39.557-35.17c5.777 1.584 11.445 3.431 16.989 5.529zm-36.311-9.759-31.727 28.208-35.416-27.43c11.587-2.192 23.544-3.338 35.768-3.338 10.686 0 21.166.876 31.375 2.56zm-86.984 5.648 44.117 34.17-9.583 11.362c-.033.04-.067.08-.1.12l-14.244 16.889-35.257-57.269c4.925-1.96 9.95-3.72 15.067-5.272zm48.031 54.347 7.578-8.986 7.58 8.987 14.757 71.549-22.337 24.696-22.336-24.695zm7.58-266.012c53.421 0 96.728 43.307 96.728 96.728 0 53.422-43.307 96.729-96.728 96.729-53.422 0-96.729-43.307-96.729-96.729 0-53.421 43.307-96.728 96.729-96.728zm-3.432-103.324c.483-1.486 1.868-2.492 3.43-2.492s2.947 1.006 3.43 2.492l7.244 22.294c.482 1.486 1.867 2.492 3.429 2.492h23.442c1.563 0 2.947 1.006 3.43 2.492s-.046 3.114-1.31 4.032l-18.965 13.779c-1.264.918-1.793 2.546-1.31 4.032l7.244 22.294c.483 1.486-.046 3.114-1.31 4.032s-2.976.918-4.239 0l-18.965-13.779c-1.264-.918-2.976-.918-4.24 0l-18.965 13.779c-1.263.918-2.975.918-4.239 0s-1.793-2.546-1.31-4.032l7.244-22.294c.483-1.486-.046-3.114-1.31-4.032l-18.965-13.779c-1.264-.918-1.793-2.546-1.31-4.032s1.867-2.492 3.43-2.492h23.442c1.562 0 2.947-1.006 3.429-2.492zm-147.525 63.948c-.709-1.392-.441-3.082.663-4.187 1.105-1.105 2.796-1.373 4.188-.663l20.886 10.642c1.393.709 3.083.442 4.188-.663l16.576-16.576c1.104-1.105 2.795-1.373 4.187-.663 1.392.709 2.169 2.234 1.924 3.777l-3.667 23.153c-.244 1.543.533 3.068 1.925 3.778l20.887 10.642c1.392.709 2.169 2.234 1.924 3.777-.244 1.543-1.454 2.754-2.997 2.998l-23.154 3.667c-1.543.244-2.753 1.455-2.997 2.998l-3.667 23.153c-.245 1.543-1.455 2.753-2.998 2.998-1.543.244-3.068-.533-3.777-1.925l-10.643-20.887c-.709-1.392-2.234-2.169-3.777-1.924l-23.153 3.667c-1.543.244-3.068-.533-3.778-1.925-.709-1.392-.441-3.082.664-4.187l16.575-16.576c1.105-1.105 1.373-2.795.664-4.187zm-59.097 149.534c-1.486-.483-2.492-1.867-2.492-3.43 0-1.562 1.006-2.947 2.492-3.429l22.294-7.244c1.486-.483 2.492-1.868 2.492-3.43v-23.442c0-1.562 1.006-2.947 2.492-3.43 1.486-.482 3.113.046 4.032 1.31l13.778 18.965c.919 1.264 2.546 1.793 4.032 1.31l22.295-7.244c1.486-.482 3.113.046 4.032 1.31.918 1.264.918 2.976 0 4.24l-13.779 18.965c-.918 1.264-.918 2.975 0 4.239l13.779 18.965c.918 1.264.918 2.975 0 4.239-.919 1.264-2.546 1.793-4.032 1.31l-22.295-7.244c-1.486-.482-3.113.046-4.032 1.31l-13.778 18.965c-.919 1.264-2.546 1.793-4.032 1.31s-2.492-1.867-2.492-3.429v-23.442c0-1.563-1.006-2.947-2.492-3.43zm356.156-154.384c1.392-.71 3.083-.442 4.188.663 1.104 1.105 1.372 2.795.663 4.187l-10.643 20.887c-.709 1.392-.441 3.082.664 4.187l16.575 16.576c1.105 1.105 1.373 2.795.664 4.187-.71 1.392-2.235 2.169-3.778 1.925l-23.153-3.667c-1.543-.245-3.068.532-3.777 1.924l-10.643 20.887c-.709 1.392-2.234 2.169-3.777 1.925-1.543-.245-2.753-1.455-2.998-2.998l-3.667-23.153c-.244-1.543-1.454-2.754-2.997-2.998l-23.154-3.667c-1.543-.244-2.753-1.455-2.997-2.998-.245-1.543.532-3.068 1.924-3.777l20.887-10.642c1.392-.71 2.169-2.235 1.925-3.778l-3.667-23.153c-.245-1.543.532-3.068 1.924-3.777 1.392-.71 3.083-.442 4.187.663l16.576 16.576c1.105 1.105 2.795 1.372 4.188.663zm63.948 147.525c1.486.482 2.492 1.867 2.492 3.429 0 1.563-1.006 2.947-2.492 3.43l-22.294 7.244c-1.486.483-2.492 1.867-2.492 3.43v23.442c0 1.562-1.006 2.946-2.492 3.429s-3.113-.046-4.032-1.31l-13.778-18.965c-.919-1.264-2.546-1.792-4.032-1.31l-22.295 7.244c-1.486.483-3.113-.046-4.032-1.31-.918-1.264-.918-2.975 0-4.239l13.779-18.965c.918-1.264.918-2.975 0-4.239l-13.779-18.965c-.918-1.264-.918-2.976 0-4.24.919-1.264 2.546-1.792 4.032-1.31l22.295 7.244c1.486.483 3.113-.046 4.032-1.31l13.778-18.965c.919-1.264 2.546-1.792 4.032-1.31 1.486.483 2.492 1.868 2.492 3.43v23.442c0 1.562 1.006 2.947 2.492 3.43z" fill="#e2c18c" fill-opacity="1" data-original-color="#000000ff" stroke="none" stroke-opacity="1"/></g></svg>