<svg id="Layer_1" height="300" viewBox="0 0 512 512" width="300" xmlns="http://www.w3.org/2000/svg" data-name="Layer 1" version="1.1" xmlns:xlink="http://www.w3.org/1999/xlink" xmlns:svgjs="http://svgjs.dev/svgjs"><g width="100%" height="100%" transform="matrix(1,0,0,1,0,0)"><path d="m360.08 274.456c-21.938 0-32.944 26.577-17.433 42.088a7.319 7.319 0 0 1 0 10.349l-15.754 15.754a7.319 7.319 0 0 1 -10.349 0c-15.511-15.511-42.087-4.5-42.087 17.433a7.318 7.318 0 0 1 -7.318 7.317h-22.278a7.317 7.317 0 0 1 -7.318-7.317c0-21.965-26.556-32.964-42.087-17.433a7.319 7.319 0 0 1 -10.349 0l-15.754-15.754a7.319 7.319 0 0 1 0-10.349c15.511-15.511 4.5-42.088-17.433-42.088a7.316 7.316 0 0 1 -7.317-7.317v-22.278a7.317 7.317 0 0 1 7.317-7.318c21.937 0 32.944-26.576 17.433-42.087a7.319 7.319 0 0 1 0-10.349l15.754-15.754a7.319 7.319 0 0 1 10.349 0c15.511 15.511 42.087 4.5 42.087-17.433a7.317 7.317 0 0 1 7.318-7.317h22.278a7.318 7.318 0 0 1 7.318 7.317c0 21.937 26.576 32.944 42.087 17.433a7.319 7.319 0 0 1 10.349 0l15.754 15.754a7.319 7.319 0 0 1 0 10.349c-15.511 15.511-4.5 42.087 17.433 42.087a7.317 7.317 0 0 1 7.317 7.318v22.278a7.316 7.316 0 0 1 -7.317 7.317zm-254.528-145.823a196.334 196.334 0 0 0 -46.683 127.367c0 108.872 88.259 197.131 197.131 197.131h193.744a2 2 0 0 1 2 2v21.269a2 2 0 0 0 3.49 1.335l39.57-44.15a1.994 1.994 0 0 0 0-2.67l-39.57-44.15a2 2 0 0 0 -3.49 1.335v21.268a2 2 0 0 1 -2 2h-193.744a155.37 155.37 0 0 1 -88.981-282.734zm150.448-28a155.37 155.37 0 0 1 88.981 282.734h61.466a196.33 196.33 0 0 0 46.684-127.367c0-108.872-88.259-197.131-197.131-197.131h-193.744a2 2 0 0 1 -2-2v-21.269a2 2 0 0 0 -3.489-1.335l-39.567 44.151a1.994 1.994 0 0 0 0 2.67l39.571 44.15a2 2 0 0 0 3.489-1.335v-21.268a2 2 0 0 1 2-2zm-108.783 352.5h-84.961a2 2 0 0 0 -2 2v21.267a2 2 0 0 1 -3.489 1.335l-39.567-44.151a1.994 1.994 0 0 1 0-2.67l39.571-44.15a2 2 0 0 1 3.489 1.335v21.268a2 2 0 0 0 2 2h30.821a226.074 226.074 0 0 0 54.136 41.764zm271.7-352.5a226 226 0 0 0 -54.136-41.764h84.961a2 2 0 0 0 2-2v-21.269a2 2 0 0 1 3.489-1.335l39.569 44.151a1.994 1.994 0 0 1 0 2.67l-39.571 44.15a2 2 0 0 1 -3.489-1.335v-21.268a2 2 0 0 0 -2-2zm-162.917 100.929a54.438 54.438 0 1 0 54.438 54.438 54.438 54.438 0 0 0 -54.438-54.438z" fill-rule="evenodd" fill="#e2c18c" fill-opacity="1" data-original-color="#000000ff" stroke="none" stroke-opacity="1"/></g></svg>