<svg id="Layer_1" enable-background="new 0 0 512 512" viewBox="0 0 512 512" xmlns="http://www.w3.org/2000/svg" width="300" height="300" version="1.1" xmlns:xlink="http://www.w3.org/1999/xlink" xmlns:svgjs="http://svgjs.dev/svgjs"><g width="100%" height="100%" transform="matrix(1,0,0,1,0,0)"><path clip-rule="evenodd" d="m154.95 163.23h164.74c3.33 0 6.01 2.69 6.01 6s-2.68 6-6.01 6h-164.74c-3.29 0-6.01-2.69-6.01-6 0-3.32 2.72-6 6.01-6zm188.73 314.23 23.74-50.91-4.46-5.92c-2.15-2.89-5.84-3.87-9.13-2.46l-9.33 3.99c-5.84 2.5-12.09 2.12-17.57-1.05-5.52-3.17-8.97-8.39-9.7-14.69l-.89-7.2-25.08 53.79 31.09-6.8c2.64-.57 5.32.69 6.57 3.08zm99.03-56.35c-5.48 3.17-11.73 3.55-17.53 1.05l-9.38-3.99c-3.33-1.41-6.98-.43-9.13 2.46l-4.46 5.92 23.74 50.91 14.77-28.17c1.26-2.4 3.94-3.65 6.57-3.08l31.09 6.8-25.08-53.79-.89 7.2c-.73 6.3-4.18 11.52-9.7 14.69zm-57.92-173.79c40.55 0 73.5 32.96 73.5 73.48s-32.96 73.48-73.5 73.48c-40.51 0-73.46-32.96-73.46-73.48s32.96-73.48 73.46-73.48zm-6.13-27.27c1.54-2.04 3.61-3.07 6.13-3.07 2.56 0 4.63 1.04 6.17 3.07l6.09 8.13c5.48 7.27 15.1 9.86 23.46 6.29l9.38-3.99c2.31-1 4.63-.86 6.82.41 2.23 1.27 3.49 3.2 3.82 5.73l1.22 10.09c1.1 9.03 8.16 16.1 17.17 17.18l10.11 1.22c2.52.3 4.42 1.57 5.72 3.78 1.26 2.2 1.42 4.51.41 6.85l-3.98 9.35c-3.57 8.36-1.01 18.01 6.29 23.47l8.12 6.1c2.03 1.53 3.04 3.59 3.04 6.14s-1.01 4.61-3.04 6.14l-8.12 6.1c-7.31 5.45-9.86 15.11-6.29 23.47l3.98 9.35c1.01 2.34.85 4.64-.41 6.85-1.3 2.21-3.21 3.48-5.72 3.79l-10.11 1.21c-9.01 1.09-16.07 8.15-17.17 17.18l-1.22 10.1c-.32 2.53-1.58 4.45-3.82 5.73-2.19 1.27-4.51 1.41-6.82.41l-9.38-3.99c-8.36-3.58-17.98-.99-23.46 6.29l-6.09 8.13c-1.54 2.03-3.61 3.07-6.17 3.07-2.52 0-4.59-1.04-6.13-3.07l-6.09-8.13c-3.82-5.09-9.7-7.88-15.71-7.88-2.6 0-5.24.51-7.75 1.59l-9.38 3.99c-2.31 1-4.63.86-6.86-.41-2.19-1.28-3.45-3.2-3.77-5.73l-1.22-10.1c-1.1-9.03-8.16-16.09-17.17-17.18l-10.11-1.21c-2.52-.31-4.42-1.58-5.72-3.78-1.26-2.21-1.42-4.51-.41-6.86l3.98-9.35c.97-2.21 1.46-4.51 1.58-6.79 0-.24.04-.49.04-.74 0-.14 0-.27-.04-.41-.04-5.97-2.84-11.75-7.87-15.52l-8.12-6.1c-2.03-1.53-3.08-3.59-3.08-6.14s1.06-4.61 3.08-6.14l8.12-6.1c4.59-3.44 7.31-8.54 7.79-13.93.08-.31.08-.62.08-.94 0-.09 0-.17 0-.26.08-2.79-.41-5.63-1.58-8.34l-3.98-9.35c-1.01-2.34-.85-4.65.41-6.85 1.3-2.21 3.21-3.48 5.72-3.78l10.11-1.22c9.01-1.09 16.07-8.15 17.17-17.18l1.22-10.09c.32-2.53 1.58-4.46 3.77-5.73 2.23-1.27 4.55-1.41 6.86-.41l9.38 3.99c8.36 3.58 17.98.99 23.46-6.29zm6.13 39.27c-33.89 0-61.45 27.58-61.45 61.48s27.56 61.48 61.45 61.48c33.93 0 61.49-27.58 61.49-61.48 0-33.89-27.56-61.48-61.49-61.48zm-9.21 78-22.2-27.56c-2.07-2.58-5.84-2.99-8.4-.91-2.6 2.08-3 5.85-.93 8.43l26.67 33.11c1.1 1.38 2.76 2.2 4.51 2.24h.16c1.7 0 3.37-.74 4.51-2.03l45.54-51.65c2.19-2.48 1.95-6.28-.53-8.47-2.52-2.19-6.29-1.95-8.48.54zm-266.41 9.56h-38.76v38.78h38.76zm0-89.87h-38.76v38.78h38.76zm0-89.88h-38.76v38.78h38.76zm.04-61.57v-70.09l-70.09 70.09zm51.79 0h152.69v-35.93h-152.69zm192.46 117.73v-196.31h-232.24v84.58c0 3.31-2.72 6-6.01 6h-84.58v317.67h255.65l21.31-45.66h-152.64c-3.29 0-6.01-2.69-6.01-6 0-3.32 2.72-6 6.01-6h128.94c-2.6-5.2-2.76-10.99-.45-16.42l2.64-6.17h-131.13c-3.29 0-6.01-2.68-6.01-6 0-3.31 2.72-6 6.01-6h130.4c-.12-.11-.24-.23-.37-.34l-8.12-6.1c-5.07-3.8-7.87-9.4-7.87-15.74s2.8-11.93 7.87-15.74l7.14-5.37h-129.05c-3.29 0-6.01-2.69-6.01-6 0-3.32 2.72-6 6.01-6h131.58l-3.08-7.23c-2.15-5.07-2.15-10.43-.04-15.36h-128.46c-3.29 0-6.01-2.69-6.01-6 0-3.32 2.72-6 6.01-6h145.01l9.33-1.12c3.57-.43 6.25-3.13 6.7-6.7l1.22-10.09c.73-6.3 4.18-11.51 9.7-14.69 5.48-3.17 11.73-3.55 17.57-1.06zm-33.77-105.73h-164.7c-3.33 0-6.01-2.69-6.01-6v-47.93c0-1.59.65-3.11 1.75-4.24 1.14-1.12 2.68-1.76 4.26-1.76h164.7c3.33 0 6.01 2.69 6.01 6v47.93c0 3.31-2.68 6-6.01 6zm-170.75 86.26c0-3.32 2.72-6 6.01-6h164.74c3.33 0 6.01 2.69 6.01 6s-2.68 6-6.01 6h-164.74c-3.29 0-6.01-2.69-6.01-6zm-33.76 131.06c3.33 0 6.01 2.69 6.01 6v50.78c0 3.31-2.68 6-6.01 6h-50.78c-3.33 0-6.01-2.69-6.01-6v-50.78c0-3.32 2.68-6 6.01-6zm6-83.87v50.78c0 3.31-2.68 6-6.01 6h-50.77c-3.33 0-6.01-2.69-6.01-6v-50.78c0-3.31 2.68-6 6.01-6h50.77c3.33 0 6.01 2.69 6.01 6zm0-89.88v50.78c0 3.31-2.68 6-6.01 6h-50.77c-3.33 0-6.01-2.69-6.01-6v-50.78c0-3.31 2.68-6 6.01-6h50.77c1.62 0 3.13.63 4.26 1.76 1.1 1.13 1.75 2.65 1.75 4.24z" fill-rule="evenodd" fill="#e2c18c" fill-opacity="1" data-original-color="#000000ff" stroke="none" stroke-opacity="1"/></g></svg>